<?xml version="1.0" encoding="UTF-8"?>
<svg id="Warstwa_1" xmlns="http://www.w3.org/2000/svg" version="1.1" viewBox="0 0 1100 556.25">
  <!-- Generator: Adobe Illustrator 29.6.0, SVG Export Plug-In . SVG Version: 2.1.1 Build 207)  -->
  <defs>
    <style>
      .st0 {
        fill: #003d65;
      }

      .st1 {
        fill: #fff;
      }

      .st1, .st2 {
        stroke: #495c68;
      }

      .st1, .st2, .st3, .st4 {
        stroke-miterlimit: 10;
      }

      .st2, .st3, .st4 {
        fill: none;
      }

      .st3 {
        stroke: #f2f2f2;
      }

      .st5 {
        fill: #a42251;
      }

      .st6 {
        fill: #495c68;
      }

      .st4 {
        stroke: #9d9d9c;
        stroke-width: .5px;
      }
    </style>
  </defs>
  <g id="Layer_1">
    <g>
      <rect class="st0" x="736.95" y="251.86" width="38.44" height="236.39"/>
      <g>
        <line class="st3" x1="68.25" y1="488.25" x2="1100" y2="488.25"/>
        <line class="st4" x1="78.25" y1="215.88" x2="1100" y2="215.88"/>
        <line class="st4" x1="78.25" y1="79.69" x2="1100" y2="79.69"/>
        <line class="st4" x1="78.25" y1="352.06" x2="1100" y2="352.06"/>
      </g>
      <g>
        <rect class="st5" x="160.32" y="277.44" width="38.44" height="210.81"/>
        <rect class="st5" x="109.93" y="46.6" width="38.44" height="441.65"/>
        <rect class="st5" x="211.25" y="436.5" width="38.44" height="51.75"/>
        <rect class="st5" x="262.19" y="441.74" width="38.44" height="46.51"/>
        <rect class="st5" x="313.12" y="467.82" width="38.44" height="20.43"/>
        <rect class="st5" x="364.05" y="467.82" width="38.44" height="20.43"/>
        <rect class="st5" x="414.99" y="471.3" width="38.44" height="16.96"/>
        <rect class="st5" x="465.92" y="471.23" width="38.44" height="17.02"/>
        <rect class="st5" x="516.85" y="481.44" width="38.44" height="6.81"/>
        <rect class="st5" x="567.79" y="478.04" width="38.44" height="10.21"/>
        <rect class="st5" x="618.72" y="483.48" width="38.44" height="4.77"/>
      </g>
      <g>
        <path class="st6" d="M4.29,76.88c0-6.14,2.78-8.52,5.83-8.52,1.66,0,2.86.7,3.7,1.63l-1.1,1.25c-.6-.74-1.56-1.22-2.52-1.22-2.14,0-3.96,1.68-4.03,6.55.96-1.2,2.33-1.97,3.58-1.97,2.66,0,4.37,1.58,4.37,4.73,0,2.93-2.06,4.92-4.54,4.92-3,0-5.28-2.45-5.28-7.37h0ZM6.21,78.13c.26,2.98,1.44,4.56,3.36,4.56,1.51,0,2.66-1.34,2.66-3.36s-.94-3.24-2.83-3.24c-.98,0-2.23.6-3.19,2.04h0Z"/>
        <path class="st6" d="M15.69,76.26c0-5.14,1.85-7.9,4.92-7.9s4.9,2.76,4.9,7.9-1.85,7.99-4.9,7.99-4.92-2.86-4.92-7.99ZM23.58,76.26c0-4.49-1.2-6.29-2.98-6.29s-2.98,1.8-2.98,6.29,1.2,6.38,2.98,6.38,2.98-1.9,2.98-6.38Z"/>
        <path class="st6" d="M27.18,76.26c0-5.14,1.85-7.9,4.92-7.9s4.9,2.76,4.9,7.9-1.85,7.99-4.9,7.99-4.92-2.86-4.92-7.99ZM35.08,76.26c0-4.49-1.2-6.29-2.98-6.29s-2.98,1.8-2.98,6.29,1.2,6.38,2.98,6.38,2.98-1.9,2.98-6.38Z"/>
        <path class="st6" d="M38.68,76.26c0-5.14,1.85-7.9,4.92-7.9s4.9,2.76,4.9,7.9-1.85,7.99-4.9,7.99-4.92-2.86-4.92-7.99ZM46.58,76.26c0-4.49-1.2-6.29-2.98-6.29s-2.98,1.8-2.98,6.29,1.2,6.38,2.98,6.38,2.98-1.9,2.98-6.38Z"/>
        <path class="st6" d="M54.23,82.9l6.12-9h-5.45v-1.61h7.97v1.06l-6.12,8.98h6.34v1.63h-8.86v-1.06Z"/>
        <path class="st6" d="M65.73,81.61v-6.19l-1.94.98-.67-1.32,2.62-1.27v-6.94h1.99v6.02l1.97-.94.7,1.3-2.66,1.25v7.25c0,.62.26.84.58.84.12,0,.22,0,.41-.05l.26,1.49c-.29.14-.65.22-1.15.22-1.49,0-2.09-.96-2.09-2.64h-.02Z"/>
      </g>
      <g>
        <path class="st6" d="M10.43,217.02H3.54v-1.32l6.55-9.77h2.21v9.5h2.09v1.58h-2.09v4.22h-1.87v-4.22h0ZM10.43,215.44v-4.44c0-.79.07-2.11.12-2.93h-.1c-.38.72-.82,1.39-1.25,2.16l-3.58,5.21h4.81Z"/>
        <path class="st6" d="M15.69,213.54c0-5.14,1.85-7.9,4.92-7.9s4.9,2.76,4.9,7.9-1.85,7.99-4.9,7.99-4.92-2.86-4.92-7.99ZM23.58,213.54c0-4.49-1.2-6.29-2.98-6.29s-2.98,1.8-2.98,6.29,1.2,6.38,2.98,6.38,2.98-1.9,2.98-6.38Z"/>
        <path class="st6" d="M27.18,213.54c0-5.14,1.85-7.9,4.92-7.9s4.9,2.76,4.9,7.9-1.85,7.99-4.9,7.99-4.92-2.86-4.92-7.99ZM35.08,213.54c0-4.49-1.2-6.29-2.98-6.29s-2.98,1.8-2.98,6.29,1.2,6.38,2.98,6.38,2.98-1.9,2.98-6.38Z"/>
        <path class="st6" d="M38.68,213.54c0-5.14,1.85-7.9,4.92-7.9s4.9,2.76,4.9,7.9-1.85,7.99-4.9,7.99-4.92-2.86-4.92-7.99ZM46.58,213.54c0-4.49-1.2-6.29-2.98-6.29s-2.98,1.8-2.98,6.29,1.2,6.38,2.98,6.38,2.98-1.9,2.98-6.38Z"/>
        <path class="st6" d="M54.23,220.19l6.12-9h-5.45v-1.61h7.97v1.06l-6.12,8.98h6.34v1.63h-8.86v-1.06h0Z"/>
        <path class="st6" d="M65.73,218.9v-6.19l-1.94.98-.67-1.32,2.62-1.27v-6.94h1.99v6.02l1.97-.94.7,1.3-2.66,1.25v7.25c0,.62.26.84.58.84.12,0,.22,0,.41-.05l.26,1.49c-.29.14-.65.22-1.15.22-1.49,0-2.09-.96-2.09-2.64h-.02Z"/>
      </g>
      <g>
        <path class="st6" d="M4.1,358.48c4.56-4.46,7.2-7.3,7.2-9.77,0-1.75-.96-2.98-2.9-2.98-1.27,0-2.38.82-3.24,1.82l-1.13-1.08c1.27-1.44,2.64-2.38,4.61-2.38,2.83,0,4.61,1.8,4.61,4.49,0,2.98-2.69,5.74-6.41,9.53.84-.07,1.78-.12,2.57-.12h4.58v1.7H4.1v-1.22h0Z"/>
        <path class="st6" d="M15.69,352c0-5.14,1.85-7.9,4.92-7.9s4.9,2.76,4.9,7.9-1.85,7.99-4.9,7.99-4.92-2.86-4.92-7.99ZM23.58,352c0-4.49-1.2-6.29-2.98-6.29s-2.98,1.8-2.98,6.29,1.2,6.38,2.98,6.38,2.98-1.9,2.98-6.38Z"/>
        <path class="st6" d="M27.18,352c0-5.14,1.85-7.9,4.92-7.9s4.9,2.76,4.9,7.9-1.85,7.99-4.9,7.99-4.92-2.86-4.92-7.99ZM35.08,352c0-4.49-1.2-6.29-2.98-6.29s-2.98,1.8-2.98,6.29,1.2,6.38,2.98,6.38,2.98-1.9,2.98-6.38Z"/>
        <path class="st6" d="M38.68,352c0-5.14,1.85-7.9,4.92-7.9s4.9,2.76,4.9,7.9-1.85,7.99-4.9,7.99-4.92-2.86-4.92-7.99ZM46.58,352c0-4.49-1.2-6.29-2.98-6.29s-2.98,1.8-2.98,6.29,1.2,6.38,2.98,6.38,2.98-1.9,2.98-6.38Z"/>
        <path class="st6" d="M54.23,358.65l6.12-9h-5.45v-1.61h7.97v1.06l-6.12,8.98h6.34v1.63h-8.86v-1.06h0Z"/>
        <path class="st6" d="M65.73,357.35v-6.19l-1.94.98-.67-1.32,2.62-1.27v-6.94h1.99v6.02l1.97-.94.7,1.3-2.66,1.25v7.25c0,.62.26.84.58.84.12,0,.22,0,.41-.05l.26,1.49c-.29.14-.65.22-1.15.22-1.49,0-2.09-.96-2.09-2.64h-.02Z"/>
      </g>
      <g>
        <circle class="st1" cx="755.98" cy="224.03" r="16.24"/>
        <path class="st6" d="M752.03,230.4h3.51v-11.25h-2.81v-1.3c1.42-.24,2.43-.62,3.27-1.13h1.54v13.68h3.15v1.66h-8.66v-1.66h0Z"/>
      </g>
      <g>
        <circle class="st2" cx="129.97" cy="19.09" r="16.24"/>
        <path class="st6" d="M126.02,25.45h3.51v-11.25h-2.81v-1.3c1.42-.24,2.43-.62,3.27-1.13h1.54v13.68h3.15v1.66h-8.66s0-1.66,0-1.66Z"/>
      </g>
      <g>
        <circle class="st2" cx="180.84" cy="252.13" r="16.24"/>
        <path class="st6" d="M175.95,258.93c4.57-4.47,7.21-7.31,7.21-9.79,0-1.76-.96-2.98-2.91-2.98-1.27,0-2.38.82-3.25,1.83l-1.13-1.08c1.27-1.44,2.65-2.38,4.62-2.38,2.84,0,4.62,1.8,4.62,4.5,0,2.98-2.69,5.75-6.42,9.55.84-.07,1.78-.12,2.57-.12h4.59v1.71h-9.91v-1.23h.01Z"/>
      </g>
      <g>
        <circle class="st2" cx="233.6" cy="411.44" r="16.24"/>
        <path class="st6" d="M228.38,417.58l1.01-1.3c.91.96,2.12,1.8,3.92,1.8s3.17-1.08,3.17-2.79c0-1.83-1.25-3.05-4.91-3.05v-1.51c3.25,0,4.35-1.25,4.35-2.86,0-1.47-1.01-2.41-2.65-2.41-1.27,0-2.36.65-3.27,1.54l-1.06-1.25c1.18-1.11,2.6-1.92,4.4-1.92,2.67,0,4.59,1.42,4.59,3.9,0,1.85-1.11,3.03-2.77,3.66v.1c1.85.43,3.32,1.78,3.32,3.9,0,2.72-2.26,4.38-5.07,4.38-2.45,0-4.02-1.03-5.05-2.17l.02-.02Z"/>
      </g>
      <g>
        <circle class="st2" cx="282.57" cy="411.44" r="16.24"/>
        <path class="st6" d="M284.04,415.23h-6.9v-1.32l6.56-9.79h2.21v9.52h2.09v1.59h-2.09v4.23h-1.88v-4.23h.01ZM284.04,413.64v-4.45c0-.79.07-2.12.12-2.93h-.1c-.38.72-.82,1.39-1.25,2.16l-3.58,5.22h4.81Z"/>
      </g>
      <g>
        <circle class="st2" cx="335.34" cy="439.28" r="16.24"/>
        <path class="st6" d="M330.09,445.5l.96-1.32c.91.91,2.07,1.75,3.87,1.75s3.34-1.35,3.34-3.49-1.27-3.34-3.25-3.34c-1.06,0-1.71.31-2.62.91l-1.06-.67.5-7.38h7.7v1.73h-5.94l-.41,4.52c.72-.38,1.42-.62,2.36-.62,2.6,0,4.74,1.49,4.74,4.81s-2.5,5.2-5.17,5.2c-2.45,0-3.97-1.03-5.03-2.09h.01Z"/>
      </g>
      <g>
        <circle class="st2" cx="382.7" cy="439.28" r="16.24"/>
        <path class="st6" d="M378.01,440.21c0-6.16,2.79-8.54,5.84-8.54,1.66,0,2.86.7,3.7,1.63l-1.11,1.25c-.6-.75-1.56-1.23-2.53-1.23-2.14,0-3.97,1.68-4.04,6.57.96-1.2,2.33-1.97,3.58-1.97,2.67,0,4.38,1.59,4.38,4.74,0,2.93-2.07,4.93-4.54,4.93-3.01,0-5.29-2.45-5.29-7.38h.01ZM379.93,441.46c.26,2.98,1.44,4.57,3.37,4.57,1.52,0,2.67-1.35,2.67-3.37s-.94-3.25-2.84-3.25c-.99,0-2.24.6-3.2,2.04h0Z"/>
      </g>
      <g>
        <circle class="st2" cx="433.28" cy="439.28" r="16.24"/>
        <path class="st6" d="M436.13,433.69h-7.65v-1.73h9.88v1.23c-3.68,4.67-4.52,8.13-4.79,14.12h-2.04c.26-5.77,1.49-9.38,4.59-13.61h.01Z"/>
      </g>
      <g>
        <circle class="st2" cx="486.04" cy="439.28" r="16.24"/>
        <path class="st6" d="M481.18,443.38c0-2,1.44-3.37,2.89-4.14v-.1c-1.13-.79-2.14-1.92-2.14-3.54,0-2.36,1.88-3.94,4.35-3.94,2.67,0,4.33,1.71,4.33,4.09,0,1.61-1.15,2.98-2.12,3.7v.1c1.37.79,2.67,1.88,2.67,3.94,0,2.29-1.97,4.09-4.95,4.09s-5.03-1.78-5.03-4.21h0ZM489.26,443.43c0-1.97-1.95-2.67-4.16-3.56-1.2.79-2.12,1.92-2.12,3.32,0,1.68,1.4,2.91,3.27,2.91s3.01-1.08,3.01-2.67h0ZM488.9,435.85c0-1.49-.99-2.69-2.67-2.69-1.42,0-2.48.96-2.48,2.45,0,1.83,1.68,2.6,3.54,3.32,1.03-.91,1.61-1.95,1.61-3.08h0Z"/>
      </g>
      <g>
        <circle class="st2" cx="533.41" cy="439.28" r="16.24"/>
        <path class="st6" d="M528.79,445.98l1.11-1.25c.63.72,1.56,1.2,2.53,1.2,2.16,0,3.94-1.66,4.04-6.52-.96,1.2-2.33,1.92-3.58,1.92-2.65,0-4.35-1.59-4.35-4.74,0-2.93,2.07-4.93,4.52-4.93,3.03,0,5.31,2.45,5.31,7.38,0,6.16-2.79,8.54-5.87,8.54-1.64,0-2.86-.7-3.7-1.61h-.01ZM533.21,439.84c1.01,0,2.24-.6,3.2-2.02-.24-2.98-1.42-4.57-3.37-4.57-1.49,0-2.65,1.32-2.65,3.34s.94,3.25,2.81,3.25h.01Z"/>
      </g>
      <g>
        <circle class="st2" cx="584.86" cy="439.28" r="16.24"/>
        <g>
          <path class="st6" d="M574.16,445.64h3.51v-11.25h-2.81v-1.3c1.42-.24,2.43-.63,3.27-1.13h1.54v13.68h3.15v1.66h-8.66v-1.66h0Z"/>
          <path class="st6" d="M584.83,439.58c0-5.15,1.85-7.91,4.93-7.91s4.91,2.77,4.91,7.91-1.85,8.01-4.91,8.01-4.93-2.86-4.93-8.01h0ZM592.75,439.58c0-4.5-1.2-6.3-2.98-6.3s-2.98,1.8-2.98,6.3,1.2,6.4,2.98,6.4,2.98-1.9,2.98-6.4Z"/>
        </g>
      </g>
      <g>
        <circle class="st2" cx="639.53" cy="439.28" r="16.24"/>
        <g>
          <path class="st6" d="M628.82,445.64h3.51v-11.25h-2.81v-1.3c1.42-.24,2.43-.63,3.27-1.13h1.54v13.68h3.15v1.66h-8.66v-1.66h0Z"/>
          <path class="st6" d="M640.34,445.64h3.51v-11.25h-2.81v-1.3c1.42-.24,2.43-.63,3.27-1.13h1.54v13.68h3.15v1.66h-8.66v-1.66h0Z"/>
        </g>
      </g>
    </g>
    <g>
      <path class="st5" d="M110.62,524.61h13.87v4.22h-8.87v4.45h7.55v4.18h-7.55v5.1h9.21v4.22h-14.21v-22.17h0Z"/>
      <path class="st5" d="M127.96,540.66v-6.83h-2.31v-3.71l2.58-.2.58-4.49h4.15v4.49h4.05v3.91h-4.05v6.77c0,1.9.85,2.69,2.18,2.69.54,0,1.16-.17,1.6-.34l.78,3.64c-.88.27-2.11.61-3.74.61-4.18,0-5.81-2.62-5.81-6.53h0Z"/>
      <path class="st5" d="M138.23,542.09c0-3.54,2.82-5.47,9.49-6.15-.1-1.5-.82-2.45-2.65-2.45-1.43,0-2.82.58-4.45,1.53l-1.8-3.3c2.14-1.29,4.56-2.21,7.21-2.21,4.32,0,6.7,2.45,6.7,7.62v9.66h-4.08l-.34-1.73h-.14c-1.43,1.26-2.99,2.14-4.9,2.14-3.09,0-5.03-2.24-5.03-5.1h-.01ZM147.71,541.88v-2.96c-3.54.48-4.69,1.5-4.69,2.79,0,1.09.75,1.6,1.94,1.6,1.12,0,1.87-.54,2.75-1.43h0Z"/>
      <path class="st5" d="M156.38,540.66v-6.83h-2.31v-3.71l2.58-.2.58-4.49h4.15v4.49h4.05v3.91h-4.05v6.77c0,1.9.85,2.69,2.18,2.69.54,0,1.16-.17,1.6-.34l.78,3.64c-.88.27-2.11.61-3.74.61-4.18,0-5.81-2.62-5.81-6.53h0Z"/>
      <path class="st5" d="M172.8,544.84l2.24-3.13c1.53,1.16,2.92,1.77,4.35,1.77s2.14-.54,2.14-1.43c0-1.12-1.7-1.63-3.43-2.31-2.04-.78-4.45-2.18-4.45-4.96,0-3.13,2.55-5.27,6.46-5.27,2.58,0,4.49,1.05,5.95,2.14l-2.24,2.99c-1.22-.88-2.38-1.43-3.57-1.43-1.29,0-1.9.48-1.9,1.33,0,1.09,1.56,1.5,3.3,2.14,2.14.78,4.56,1.97,4.56,5.07s-2.41,5.44-6.94,5.44c-2.21,0-4.76-.95-6.46-2.35h-.01Z"/>
      <path class="st5" d="M188.75,529.92h4.08l.34,1.67h.14c1.33-1.19,3.03-2.07,4.79-2.07,4.08,0,6.6,3.37,6.6,8.57,0,5.78-3.47,9.11-7.11,9.11-1.46,0-2.82-.65-4.01-1.77l.17,2.69v4.93h-5v-23.12h0ZM199.56,538.14c0-3.03-.92-4.56-2.92-4.56-1.02,0-1.9.48-2.89,1.53v6.9c.88.82,1.84,1.09,2.69,1.09,1.73,0,3.13-1.5,3.13-4.96h-.01Z"/>
      <path class="st5" d="M206.63,538.35c0-5.47,3.91-8.84,7.96-8.84,4.79,0,7.17,3.5,7.17,8.09,0,.88-.1,1.8-.2,2.21h-10.1c.44,2.45,2.14,3.57,4.39,3.57,1.26,0,2.41-.37,3.64-1.12l1.67,3.03c-1.73,1.19-3.98,1.9-5.98,1.9-4.83,0-8.53-3.26-8.53-8.84h-.02ZM217.51,536.51c0-1.87-.82-3.2-2.82-3.2-1.56,0-2.92,1.05-3.26,3.2h6.09,0Z"/>
      <path class="st5" d="M223.63,538.35c0-5.61,4.11-8.84,8.77-8.84,2.07,0,3.67.75,4.93,1.8l-2.35,3.23c-.82-.68-1.5-.99-2.28-.99-2.41,0-3.94,1.87-3.94,4.79s1.6,4.79,3.77,4.79c1.09,0,2.14-.54,3.03-1.22l1.97,3.26c-1.67,1.46-3.74,2.01-5.58,2.01-4.69,0-8.33-3.23-8.33-8.84h.01Z"/>
      <path class="st5" d="M235.94,552.96l.88-3.67c.44.14.85.24,1.33.24,1.33,0,1.77-.85,1.77-2.72v-16.9h5v16.76c0,3.67-1.43,6.76-6.02,6.76-1.39,0-2.28-.2-2.96-.48h0ZM239.54,524.82c0-1.53,1.22-2.58,2.89-2.58s2.89,1.05,2.89,2.58-1.22,2.62-2.89,2.62-2.89-1.09-2.89-2.62Z"/>
      <path class="st5" d="M247.94,542.09c0-3.54,2.82-5.47,9.49-6.15-.1-1.5-.82-2.45-2.65-2.45-1.43,0-2.82.58-4.45,1.53l-1.8-3.3c2.14-1.29,4.56-2.21,7.21-2.21,4.32,0,6.7,2.45,6.7,7.62v9.66h-4.08l-.34-1.73h-.14c-1.43,1.26-2.99,2.14-4.9,2.14-3.09,0-5.03-2.24-5.03-5.1h-.01ZM257.43,541.88v-2.96c-3.54.48-4.69,1.5-4.69,2.79,0,1.09.75,1.6,1.94,1.6,1.12,0,1.87-.54,2.75-1.43h0Z"/>
      <path class="st5" d="M266.03,541.54v-18.6h5v18.8c0,1.05.48,1.39.88,1.39.2,0,.34,0,.61-.07l.61,3.71c-.54.24-1.39.41-2.52.41-3.43,0-4.59-2.24-4.59-5.64h.01Z"/>
      <path class="st5" d="M274.73,524.82c0-1.53,1.22-2.58,2.89-2.58s2.89,1.05,2.89,2.58-1.19,2.62-2.89,2.62-2.89-1.09-2.89-2.62ZM275.14,529.92h5v16.86h-5v-16.86Z"/>
      <path class="st5" d="M282.42,544.84l2.24-3.13c1.53,1.16,2.92,1.77,4.35,1.77s2.14-.54,2.14-1.43c0-1.12-1.7-1.63-3.43-2.31-2.04-.78-4.45-2.18-4.45-4.96,0-3.13,2.55-5.27,6.46-5.27,2.58,0,4.49,1.05,5.95,2.14l-2.24,2.99c-1.22-.88-2.38-1.43-3.57-1.43-1.29,0-1.9.48-1.9,1.33,0,1.09,1.56,1.5,3.3,2.14,2.14.78,4.56,1.97,4.56,5.07s-2.41,5.44-6.94,5.44c-2.21,0-4.76-.95-6.46-2.35h-.01Z"/>
      <path class="st5" d="M298.36,540.66v-6.83h-2.31v-3.71l2.58-.2.58-4.49h4.15v4.49h4.05v3.91h-4.05v6.77c0,1.9.85,2.69,2.18,2.69.54,0,1.16-.17,1.6-.34l.78,3.64c-.88.27-2.11.61-3.74.61-4.18,0-5.81-2.62-5.81-6.53h0Z"/>
      <path class="st5" d="M309.58,553.03l.88-3.81c.31.07.75.2,1.12.2,1.67,0,2.52-.88,2.96-2.21l.24-.88-6.49-16.42h5.03l2.41,7.24c.48,1.53.88,3.13,1.33,4.79h.14c.37-1.6.75-3.2,1.16-4.79l2.04-7.24h4.79l-5.85,17.03c-1.6,4.25-3.4,6.43-7.38,6.43-1.02,0-1.7-.14-2.38-.34Z"/>
      <path class="st5" d="M332.64,536.58h13.39v3.2h-13.39v-3.2Z"/>
      <path class="st5" d="M355.45,542.73h4.69v-12.48h-4.05v-3.09c2.35-.44,3.84-1.05,5.37-1.97h3.67v17.54h4.05v4.05h-13.73v-4.05Z"/>
      <path class="st5" d="M371.67,543.92c5.51-5.2,9.38-8.91,9.38-11.97,0-2.11-1.19-3.26-3.06-3.26-1.56,0-2.75,1.05-3.84,2.21l-2.72-2.69c2.14-2.28,4.15-3.43,7.24-3.43,4.25,0,7.14,2.72,7.14,6.87,0,3.64-3.4,7.51-6.9,11.19,1.09-.14,2.58-.27,3.6-.27h4.35v4.22h-15.2v-2.86h0Z"/>
      <path class="st5" d="M398.05,541.61c.71.82,2.07,1.53,3.33,1.53,2.41,0,4.28-1.7,4.45-6.73-1.12,1.43-2.99,2.28-4.32,2.28-3.67,0-6.43-2.11-6.43-6.66s3.26-7.24,7.17-7.24c4.18,0,8.19,3.13,8.19,10.71,0,8.06-4.22,11.7-8.74,11.7-2.86,0-4.96-1.22-6.32-2.58l2.65-2.99.02-.02ZM405.73,533.01c-.44-3.4-1.84-4.49-3.37-4.49s-2.72,1.05-2.72,3.5c0,2.28,1.22,3.13,2.86,3.13,1.09,0,2.28-.58,3.23-2.14Z"/>
      <path class="st5" d="M412.06,544.16l2.24-3.16c1.29,1.19,2.82,2.14,4.66,2.14,2.21,0,3.64-1.16,3.64-3.37s-1.39-3.33-3.4-3.33c-1.26,0-1.9.27-3.2,1.09l-2.24-1.43.61-10.91h12.24v4.22h-7.92l-.37,4.04c.82-.37,1.53-.51,2.41-.51,3.71,0,6.87,2.11,6.87,6.7s-3.71,7.55-7.92,7.55c-3.54,0-5.92-1.33-7.62-3.03h0Z"/>
      <path class="st5" d="M430.05,541.27c0-2.62,1.63-4.21,3.67-5.3v-.14c-1.67-1.26-2.89-2.82-2.89-5.1,0-3.67,2.89-5.95,6.9-5.95s6.56,2.35,6.56,5.92c0,2.07-1.33,3.74-2.82,4.73v.14c2.07,1.12,3.74,2.79,3.74,5.64,0,3.4-3.06,5.98-7.65,5.98-4.32,0-7.51-2.41-7.51-5.92h0ZM440.55,541.03c0-1.9-1.84-2.62-4.56-3.77-.95.88-1.67,2.11-1.67,3.43,0,1.9,1.53,3.03,3.33,3.03,1.67,0,2.89-.88,2.89-2.69h.01ZM440.24,531.04c0-1.67-.99-2.79-2.62-2.79-1.33,0-2.41.82-2.41,2.48,0,1.77,1.5,2.62,3.71,3.47.85-.99,1.33-2.04,1.33-3.16h0Z"/>
      <path class="st5" d="M453.44,544.09l7.07-10.27h-6.29v-3.91h12.51v2.65l-7.07,10.3h7.31v3.91h-13.53v-2.69h0Z"/>
      <path class="st5" d="M474.72,541.75c0,1.05.48,1.39.88,1.39.2,0,.34,0,.61-.07l.61,3.71c-.54.24-1.39.41-2.52.41-3.43,0-4.59-2.24-4.59-5.64v-4.15l-1.53.88-1.73-3.09,3.26-1.84v-10.4h5v7.96l1.63-.92,1.7,3.09-3.33,1.87v6.8h0Z"/>
      <path class="st5" d="M484.14,522.64h3.26l-6.83,29.58h-3.26l6.83-29.58Z"/>
      <path class="st5" d="M489.99,529.92h4.08l.34,2.18h.14c1.39-1.39,2.89-2.58,5.1-2.58,2.38,0,3.81,1.02,4.66,2.82,1.5-1.53,3.06-2.82,5.3-2.82,3.64,0,5.27,2.58,5.27,6.8v10.47h-5v-9.83c0-2.45-.65-3.2-2.07-3.2-.85,0-1.8.54-2.89,1.63v11.39h-5v-9.83c0-2.45-.65-3.2-2.07-3.2-.82,0-1.8.54-2.86,1.63v11.39h-5v-16.86h0Z"/>
      <path class="st5" d="M517.76,536.41h8.36v3.54h-8.36v-3.54Z"/>
      <path class="st5" d="M528.2,538.35c0-5.61,4.11-8.84,8.77-8.84,2.07,0,3.67.75,4.93,1.8l-2.35,3.23c-.82-.68-1.5-.99-2.28-.99-2.41,0-3.94,1.87-3.94,4.79s1.6,4.79,3.77,4.79c1.09,0,2.14-.54,3.03-1.22l1.97,3.26c-1.67,1.46-3.74,2.01-5.58,2.01-4.69,0-8.33-3.23-8.33-8.84h.01Z"/>
    </g>
    <g>
      <path class="st0" d="M738.14,535.59c0-7.24,4.08-11.39,10.06-11.39s10.06,4.18,10.06,11.39-4.08,11.59-10.06,11.59-10.06-4.35-10.06-11.59ZM753.13,535.59c0-4.42-1.9-7.07-4.93-7.07s-4.93,2.65-4.93,7.07,1.9,7.28,4.93,7.28,4.93-2.82,4.93-7.28Z"/>
      <path class="st0" d="M761.26,540.39v-10.47h5v9.83c0,2.41.65,3.2,2.11,3.2,1.26,0,2.01-.54,2.99-1.87v-11.15h5v16.86h-4.08l-.37-2.35h-.1c-1.43,1.7-2.99,2.75-5.3,2.75-3.67,0-5.24-2.58-5.24-6.8h-.01Z"/>
      <path class="st0" d="M780.81,540.66v-6.83h-2.31v-3.71l2.58-.2.58-4.49h4.15v4.49h4.05v3.91h-4.05v6.77c0,1.9.85,2.69,2.18,2.69.54,0,1.16-.17,1.6-.34l.78,3.64c-.88.27-2.11.61-3.74.61-4.18,0-5.81-2.62-5.81-6.53h-.01Z"/>
      <path class="st0" d="M790.7,544.84l2.24-3.13c1.53,1.16,2.92,1.77,4.35,1.77s2.14-.54,2.14-1.43c0-1.12-1.7-1.63-3.43-2.31-2.04-.78-4.45-2.18-4.45-4.96,0-3.13,2.55-5.27,6.46-5.27,2.58,0,4.49,1.05,5.95,2.14l-2.24,2.99c-1.22-.88-2.38-1.43-3.57-1.43-1.29,0-1.9.48-1.9,1.33,0,1.09,1.56,1.5,3.3,2.14,2.14.78,4.56,1.97,4.56,5.07s-2.41,5.44-6.94,5.44c-2.21,0-4.76-.95-6.46-2.35h0Z"/>
      <path class="st0" d="M805.66,538.35c0-5.61,3.94-8.84,8.23-8.84s8.19,3.23,8.19,8.84-3.94,8.84-8.19,8.84-8.23-3.23-8.23-8.84ZM816.98,538.35c0-2.92-1.05-4.79-3.09-4.79s-3.09,1.87-3.09,4.79,1.02,4.79,3.09,4.79,3.09-1.87,3.09-4.79Z"/>
      <path class="st0" d="M824.74,540.39v-10.47h5v9.83c0,2.41.65,3.2,2.11,3.2,1.26,0,2-.54,2.99-1.87v-11.15h5v16.86h-4.08l-.37-2.35h-.1c-1.43,1.7-2.99,2.75-5.3,2.75-3.67,0-5.24-2.58-5.24-6.8h-.01Z"/>
      <path class="st0" d="M843.61,529.92h4.08l.34,2.96h.14c1.22-2.28,3.06-3.37,4.79-3.37.95,0,1.53.14,2.01.34l-.82,4.32c-.61-.17-1.12-.27-1.84-.27-1.26,0-2.82.82-3.71,3.09v9.79h-5v-16.86h.01Z"/>
      <path class="st0" d="M855.2,538.35c0-5.61,4.11-8.84,8.77-8.84,2.07,0,3.67.75,4.93,1.8l-2.35,3.23c-.82-.68-1.5-.99-2.28-.99-2.41,0-3.94,1.87-3.94,4.79s1.6,4.79,3.77,4.79c1.09,0,2.14-.54,3.03-1.22l1.97,3.26c-1.67,1.46-3.74,2.01-5.58,2.01-4.69,0-8.33-3.23-8.33-8.84h.01Z"/>
      <path class="st0" d="M871.04,524.82c0-1.53,1.22-2.58,2.89-2.58s2.89,1.05,2.89,2.58-1.19,2.62-2.89,2.62-2.89-1.09-2.89-2.62ZM871.45,529.92h5v16.86h-5v-16.86Z"/>
      <path class="st0" d="M880.22,529.92h4.08l.34,2.14h.14c1.43-1.36,3.13-2.55,5.41-2.55,3.67,0,5.24,2.58,5.24,6.8v10.47h-5v-9.83c0-2.45-.65-3.2-2.07-3.2-1.26,0-2.04.58-3.13,1.63v11.39h-5v-16.86h-.01Z"/>
      <path class="st0" d="M898.01,549.67c0-1.39.85-2.52,2.41-3.4v-.14c-.88-.58-1.56-1.46-1.56-2.86,0-1.22.82-2.41,1.9-3.16v-.14c-1.19-.82-2.28-2.41-2.28-4.38,0-4.05,3.33-6.09,6.97-6.09.95,0,1.87.14,2.62.41h6.15v3.64h-2.69c.31.51.54,1.33.54,2.21,0,3.88-2.92,5.68-6.63,5.68-.61,0-1.29-.1-2.04-.34-.44.37-.61.68-.61,1.26,0,.85.68,1.26,2.55,1.26h2.72c4.15,0,6.43,1.26,6.43,4.28,0,3.5-3.64,6.05-9.42,6.05-3.94,0-7.07-1.29-7.07-4.28h.01ZM909.73,548.75c0-1.05-.92-1.33-2.58-1.33h-1.73c-1.16,0-1.84-.07-2.38-.2-.61.54-.92,1.05-.92,1.67,0,1.26,1.5,1.94,3.74,1.94s3.88-.92,3.88-2.07h-.01ZM907.76,535.59c0-1.77-.99-2.72-2.31-2.72s-2.31.92-2.31,2.72.99,2.82,2.31,2.82,2.31-.95,2.31-2.82Z"/>
      <path class="st0" d="M922.04,536.58h13.39v3.2h-13.39v-3.2Z"/>
      <path class="st0" d="M943.5,544.13l2.31-3.16c1.29,1.26,2.89,2.18,4.73,2.18,2.11,0,3.5-.92,3.5-2.55,0-1.9-1.12-3.09-5.81-3.09v-3.54c3.88,0,5.1-1.16,5.1-2.89,0-1.5-.95-2.38-2.65-2.38-1.53,0-2.69.71-4.04,1.9l-2.52-3.06c1.97-1.7,4.15-2.75,6.8-2.75,4.45,0,7.45,2.14,7.45,5.92,0,2.24-1.29,3.81-3.6,4.79v.14c2.48.71,4.28,2.48,4.28,5.27,0,4.01-3.67,6.29-8.02,6.29-3.5,0-5.95-1.22-7.51-3.06h-.02Z"/>
      <path class="st0" d="M960.87,544.16l2.24-3.16c1.29,1.19,2.82,2.14,4.66,2.14,2.21,0,3.64-1.16,3.64-3.37s-1.39-3.33-3.4-3.33c-1.26,0-1.9.27-3.2,1.09l-2.24-1.43.61-10.91h12.24v4.22h-7.92l-.37,4.04c.82-.37,1.53-.51,2.41-.51,3.71,0,6.87,2.11,6.87,6.7s-3.71,7.55-7.92,7.55c-3.54,0-5.92-1.33-7.62-3.03h0Z"/>
      <path class="st0" d="M978.69,535.9c0-7.34,3.09-11.12,7.72-11.12s7.72,3.77,7.72,11.12-3.09,11.29-7.72,11.29-7.72-3.94-7.72-11.29ZM989.4,535.9c0-5.92-1.29-7.24-2.99-7.24s-2.99,1.33-2.99,7.24,1.33,7.41,2.99,7.41,2.99-1.53,2.99-7.41Z"/>
      <path class="st0" d="M996.03,535.9c0-7.34,3.09-11.12,7.72-11.12s7.72,3.77,7.72,11.12-3.09,11.29-7.72,11.29-7.72-3.94-7.72-11.29ZM1006.74,535.9c0-5.92-1.29-7.24-2.99-7.24s-2.99,1.33-2.99,7.24,1.33,7.41,2.99,7.41,2.99-1.53,2.99-7.41Z"/>
      <path class="st0" d="M1019.59,544.09l7.07-10.27h-6.29v-3.91h12.51v2.65l-7.07,10.3h7.31v3.91h-13.53v-2.69h0Z"/>
      <path class="st0" d="M1040.87,541.75c0,1.05.48,1.39.88,1.39.2,0,.34,0,.61-.07l.61,3.71c-.54.24-1.39.41-2.52.41-3.43,0-4.59-2.24-4.59-5.64v-4.15l-1.53.88-1.73-3.09,3.26-1.84v-10.4h5v7.96l1.63-.92,1.7,3.09-3.33,1.87v6.8h.01Z"/>
      <path class="st0" d="M1050.29,522.64h3.26l-6.83,29.58h-3.26l6.83-29.58Z"/>
      <path class="st0" d="M1056.14,529.92h4.08l.34,2.18h.14c1.39-1.39,2.89-2.58,5.1-2.58,2.38,0,3.81,1.02,4.66,2.82,1.5-1.53,3.06-2.82,5.3-2.82,3.64,0,5.27,2.58,5.27,6.8v10.47h-5v-9.83c0-2.45-.65-3.2-2.07-3.2-.85,0-1.8.54-2.89,1.63v11.39h-5v-9.83c0-2.45-.65-3.2-2.07-3.2-.82,0-1.8.54-2.86,1.63v11.39h-5v-16.86h0Z"/>
      <path class="st0" d="M1083.68,538.35c0-5.61,4.11-8.84,8.77-8.84,2.07,0,3.67.75,4.93,1.8l-2.35,3.23c-.82-.68-1.5-.99-2.28-.99-2.41,0-3.94,1.87-3.94,4.79s1.6,4.79,3.77,4.79c1.09,0,2.14-.54,3.03-1.22l1.97,3.26c-1.67,1.46-3.74,2.01-5.58,2.01-4.69,0-8.33-3.23-8.33-8.84h0Z"/>
    </g>
  </g>
</svg>