<svg id="Layer_1" data-name="Layer 1" xmlns="http://www.w3.org/2000/svg" viewBox="0 0 70 55">
  <defs>
    <style>
      .cls-1 {
        fill: #495c68;
      }
    </style>
  </defs>
  <g>
    <polygon class="cls-1" points="61.01 54.27 51.43 44.48 24.4 44.48 24.4 42.41 52.3 42.41 58.95 49.21 58.95 42.41 66.44 42.41 66.44 13.2 63.58 13.2 63.58 11.14 68.5 11.14 68.5 44.48 61.01 44.48 61.01 54.27"/>
    <path class="cls-1" d="M10.54,49.66V37.39h-9V.48H60.67V37.39H23.81Zm-7-14.33h9v9.61L23,35.33h35.6V2.54h-55Z"/>
    <path class="cls-1" d="M55.77,32.38H6.39V5.48H55.77ZM8.46,30.32H53.71V7.55H8.46Z"/>
    <g>
      <path class="cls-1" d="M19.71,22.42a3.67,3.67,0,1,1,3.61-3.67A3.65,3.65,0,0,1,19.71,22.42Zm0-5.28a1.61,1.61,0,1,0,1.55,1.61A1.59,1.59,0,0,0,19.71,17.14Z"/>
      <path class="cls-1" d="M31.08,22.42a3.67,3.67,0,1,1,3.61-3.67A3.65,3.65,0,0,1,31.08,22.42Zm0-5.28a1.61,1.61,0,1,0,1.55,1.61A1.58,1.58,0,0,0,31.08,17.14Z"/>
      <path class="cls-1" d="M42.46,22.42a3.67,3.67,0,1,1,3.61-3.67A3.65,3.65,0,0,1,42.46,22.42Zm0-5.28A1.61,1.61,0,1,0,44,18.75,1.58,1.58,0,0,0,42.46,17.14Z"/>
    </g>
  </g>
</svg>
