<svg id="Layer_1" data-name="Layer 1" xmlns="http://www.w3.org/2000/svg" viewBox="0 0 55 55">
  <defs>
    <style>
      .cls-1 {
        fill: #fff;
      }
    </style>
  </defs>
  <g>
    <g>
      <g>
        <rect class="cls-1" x="36.87" y="42.17" width="1.63" height="11.16"/>
        <rect class="cls-1" x="15.74" y="42.17" width="1.63" height="11.16"/>
        <g>
          <path class="cls-1" d="M39.12,43.06h0a5.5,5.5,0,0,1-3.94-1.64,4.65,4.65,0,0,1,0-6.55,3.84,3.84,0,0,1,5.46,0,3.28,3.28,0,0,1,0,4.61l-1.16-1.16a1.64,1.64,0,0,0,0-2.3,2.2,2.2,0,0,0-3.14,0,3,3,0,0,0,0,4.25,3.92,3.92,0,0,0,2.78,1.16h0a3.88,3.88,0,0,0,2.78-1.16,5.18,5.18,0,0,0,0-7.29,6,6,0,0,0-4.08-1.92c-2,0-5.8,0-5.84,0l0-1.63s3.82-.05,5.89,0a7.65,7.65,0,0,1,5.21,2.4,6.81,6.81,0,0,1,0,9.59A5.5,5.5,0,0,1,39.12,43.06Z"/>
          <path class="cls-1" d="M15.13,43.06a5.5,5.5,0,0,1-3.94-1.64,6.8,6.8,0,0,1,0-9.59,7.65,7.65,0,0,1,5.2-2.4c2.07-.05,15.23,0,15.78,0v1.63c-.14,0-13.69,0-15.74,0A6.06,6.06,0,0,0,12.34,33a5.18,5.18,0,0,0,0,7.29,4,4,0,0,0,2.79,1.16h0a3.92,3.92,0,0,0,2.78-1.16,3,3,0,0,0,0-4.25,2.21,2.21,0,0,0-3.15,0,1.64,1.64,0,0,0,0,2.3l-1.15,1.16a3.27,3.27,0,0,1,0-4.61,3.84,3.84,0,0,1,5.46,0,4.65,4.65,0,0,1,0,6.55,5.5,5.5,0,0,1-3.94,1.64Z"/>
        </g>
        <rect class="cls-1" x="18.53" y="35.15" width="17.04" height="1.63"/>
      </g>
      <rect class="cls-1" x="20.47" y="43.87" width="1.63" height="9.46"/>
      <rect class="cls-1" x="26.41" y="40.68" width="1.63" height="12.65"/>
      <rect class="cls-1" x="32.34" y="43.87" width="1.63" height="9.46"/>
    </g>
    <path class="cls-1" d="M20.91,25.93,22.1,19l-5-4.92,6.93-1,3.11-6.33,3.11,6.33,6.94,1-5,4.92,1.18,6.94-6.21-3.28Zm6.21-5.13,4,2.14-.77-4.52,3.28-3.21-4.53-.66-2-4.11-2,4.11-4.52.66,3.27,3.21-.77,4.52Z"/>
    <g>
      <path class="cls-1" d="M43.27,49.17l-1-1.3c.21-.16.42-.32.62-.49l1,1.26Z"/>
      <path class="cls-1" d="M45.21,47.52l-1.12-1.19c.39-.36.77-.74,1.13-1.13l1.19,1.12C46,46.73,45.62,47.14,45.21,47.52ZM9,47.49c-.41-.39-.82-.79-1.2-1.2L9,45.17c.36.38.74.76,1.13,1.12Zm38.53-2.44-1.25-1c.33-.41.66-.83,1-1.26l1.33,1C48.25,44.17,47.89,44.62,47.53,45.05ZM6.68,45c-.36-.43-.71-.88-1-1.34l1.32-1c.31.43.64.85,1,1.26Zm42.85-2.7-1.38-.88c.28-.44.56-.9.81-1.37l1.43.79C50.12,41.34,49.83,41.83,49.53,42.31ZM4.68,42.26c-.3-.47-.59-1-.86-1.46L5.26,40c.25.46.52.92.81,1.37Zm46.48-2.92-1.48-.7c.23-.48.44-1,.63-1.46l1.52.6C51.63,38.3,51.4,38.83,51.16,39.34Zm-48.1-.05c-.24-.52-.47-1-.67-1.57l1.52-.59c.19.49.41,1,.63,1.47ZM52.4,36.18l-1.55-.5c.16-.5.31-1,.44-1.53l1.58.4C52.73,35.09,52.58,35.64,52.4,36.18ZM1.82,36.12c-.17-.53-.32-1.08-.46-1.63L3,34.09c.12.52.27,1,.43,1.54Zm51.41-3.23-1.61-.3c.1-.52.18-1.05.24-1.57l1.63.19C53.42,31.77,53.33,32.33,53.23,32.89ZM1,32.83c-.1-.56-.18-1.12-.25-1.68L2.37,31c.07.52.15,1,.24,1.58Zm52.63-3.31L52,29.43c0-.47,0-.95,0-1.43v-.17h1.64V28C53.68,28.51,53.66,29,53.63,29.52Zm-53-.06c0-.49,0-1,0-1.46v-.24H2.2V28c0,.46,0,.91,0,1.37ZM52,26.24c0-.53-.09-1.06-.16-1.59l1.62-.21c.08.56.13,1.13.17,1.69ZM2.27,26.18.64,26.06c0-.56.1-1.13.17-1.68l1.62.22C2.36,25.12,2.31,25.65,2.27,26.18Zm49.29-3.1c-.1-.52-.22-1-.36-1.55l1.58-.42c.15.55.27,1.1.38,1.66ZM2.69,23l-1.6-.33q.16-.82.39-1.65l1.58.42C2.92,22,2.8,22.51,2.69,23Zm48.05-3c-.16-.51-.35-1-.55-1.5l1.51-.62c.22.53.41,1.06.59,1.6ZM3.52,20,2,19.43q.27-.81.6-1.59l1.51.62C3.88,19,3.69,19.45,3.52,20Zm46-2.9c-.23-.47-.48-.95-.74-1.41l1.42-.8c.28.49.54,1,.79,1.5ZM4.73,17l-1.47-.72c.25-.51.51-1,.79-1.5l1.42.81C5.21,16.06,5,16.53,4.73,17ZM48,14.28c-.29-.44-.6-.88-.92-1.31l1.31-1c.34.45.67.92,1,1.39Zm-41.67,0-1.36-.9c.3-.47.63-.93,1-1.38l1.31,1C6.9,13.36,6.59,13.8,6.3,14.24Zm39.76-2.51c-.34-.4-.7-.8-1.07-1.18l1.17-1.14c.39.41.78.83,1.14,1.26Zm-37.85,0L7,10.63c.37-.43.75-.85,1.15-1.25l1.17,1.14Q8.74,11.09,8.21,11.69ZM43.84,9.44c-.39-.36-.8-.7-1.21-1l1-1.27c.44.35.88.72,1.29,1.1Zm-33.41,0L9.34,8.2c.41-.38.85-.75,1.29-1.1l1,1.28C11.23,8.71,10.83,9.06,10.43,9.41Zm30.92-2c-.43-.3-.88-.6-1.33-.87l.85-1.4c.48.29,1,.61,1.42.93Zm-28.42,0L12,6.08c.46-.32.94-.63,1.42-.92l.85,1.39C13.81,6.83,13.36,7.12,12.93,7.42ZM38.64,5.79q-.7-.36-1.44-.69l.67-1.49c.51.23,1,.48,1.53.74Zm-23,0-.76-1.45c.51-.26,1-.51,1.54-.73l.66,1.49C16.6,5.29,16.12,5.53,15.65,5.77ZM35.73,4.5c-.49-.18-1-.35-1.51-.5l.47-1.57c.54.16,1.08.34,1.61.54Zm-17.16,0L18,3q.8-.3,1.62-.54L20.08,4C19.57,4.13,19.06,4.3,18.57,4.48Zm14.11-.89c-.51-.11-1-.22-1.56-.3l.26-1.62c.56.1,1.12.2,1.67.33Zm-11.06,0L21.26,2c.55-.13,1.11-.24,1.67-.33l.26,1.62C22.66,3.36,22.14,3.46,21.62,3.58Zm7.92-.5C29,3,28.48,3,28,3L28,1.35c.57,0,1.14,0,1.7.11Zm-4.77,0-.16-1.63c.56-.05,1.13-.09,1.7-.1L26.36,3C25.82,3,25.29,3,24.77,3.08Z"/>
      <path class="cls-1" d="M11,49.17l-.66-.53,1-1.26c.2.17.41.33.62.49Z"/>
    </g>
  </g>
</svg>
